<svg width="24" height="24" viewBox="0 0 24 24" fill="none" xmlns="http://www.w3.org/2000/svg">
<path fill-rule="evenodd" clip-rule="evenodd" d="M16.9443 10.1666C16.9443 13.9098 13.9098 16.9443 10.1666 16.9443C6.42334 16.9443 3.38886 13.9098 3.38886 10.1666C3.38886 6.42334 6.42334 3.38886 10.1666 3.38886C13.9098 3.38886 16.9443 6.42334 16.9443 10.1666ZM20.3331 10.1666C20.3331 15.7814 15.7814 20.3331 10.1666 20.3331C4.55173 20.3331 0 15.7814 0 10.1666C0 4.55173 4.55173 0 10.1666 0C15.7814 0 20.3331 4.55173 20.3331 10.1666ZM18.1342 18.1342C17.3252 18.9431 17.3252 20.2547 18.1342 21.0637L20.4637 23.3933C21.2727 24.2022 22.5843 24.2022 23.3933 23.3933C24.2022 22.5843 24.2022 21.2727 23.3933 20.4637L21.0637 18.1342C20.2547 17.3252 18.9431 17.3252 18.1342 18.1342Z" fill="white"/>
</svg>
