<svg width="24" height="25" viewBox="0 0 24 25" fill="none" xmlns="http://www.w3.org/2000/svg">
<path fill-rule="evenodd" clip-rule="evenodd" d="M18.3704 23.8887C19.1493 23.1055 19.1532 21.8318 18.3743 21.0486L9.87232 12.4998L18.3743 3.95094C19.1532 3.16775 19.1493 1.89403 18.3704 1.11084C17.5915 0.327647 16.3248 0.323733 15.5459 1.10692L5.62968 11.0778L5.62578 11.0817C5.23683 11.4728 5.04308 11.9862 5.04355 12.4998C5.04308 13.0134 5.23683 13.5268 5.62578 13.9179L5.62748 13.9196C5.62821 13.9203 5.62894 13.9211 5.62967 13.9218C5.63041 13.9225 5.63114 13.9233 5.63187 13.924L15.5459 23.8927C16.3248 24.6758 17.5915 24.6719 18.3704 23.8887Z" fill="white"/>
</svg>
