<svg width="24" height="24" viewBox="0 0 24 24" fill="none" xmlns="http://www.w3.org/2000/svg">
<path fill-rule="evenodd" clip-rule="evenodd" d="M1.44331 9.49973C0.550147 11.0467 0.550146 12.9527 1.44331 14.4997L4.55656 19.892C5.44972 21.439 7.10036 22.392 8.88669 22.392H15.1132C16.8995 22.392 18.5501 21.439 19.4433 19.892L22.5566 14.4997C23.4497 12.9527 23.4497 11.0467 22.5566 9.49972L19.4433 4.10742C18.5501 2.56042 16.8995 1.60742 15.1132 1.60742H8.88669C7.10036 1.60742 5.44972 2.56042 4.55656 4.10742L1.44331 9.49973ZM11.9999 17.9997C15.3136 17.9997 17.9999 15.3134 17.9999 11.9997C17.9999 8.68602 15.3136 5.99973 11.9999 5.99973C8.68623 5.99973 5.99993 8.68602 5.99993 11.9997C5.99993 15.3134 8.68623 17.9997 11.9999 17.9997Z" fill="white"/>
</svg>
